{"title":"Transcendence (2014) &amp; BluRay Xtras 1080p","uid":12163173,"size":4708840352,"categoryP":"video","categoryS":"hd___movies","magnet":"?xt=urn:btih:8612e610b3f046592a76fba5cdbfb6fc15f247f7&amp;dn=Transcendence+%282014%29+%26amp%3B+BluRay+Xtras+1080p&amp;tr=udp%3A%2F%2Ftracker.openbittorrent.com%3A80&amp;tr=udp%3A%2F%2Fopen.demonii.com%3A1337&amp;tr=udp%3A%2F%2Ftracker.coppersurfer.tk%3A6969&amp;tr=udp%3A%2F%2Fexodus.desync.com%3A6969","seeders":1,"leechers":0,"uploader":"AlienMethod","files":16,"time":1437963806,"description":"x264/mp4\n6-Channel AC3@448kbps (audio 1)\n2-Channel AAC@128kbps (audio 2)\nEnglish Subs Incl.\nBluRay Xtras Incl.\n\n\n&quot;A scientist's drive for artificial intelligence, takes on dangerous implications when his consciousness is uploaded into one such program.&quot;\n\n\nGeneral\nComplete name : F:TorrentsTranscendence (2014) &amp; BluRay Xtras 1080p\nTrascendence (2014) 1080p.mp4\nFormat : MPEG-4\nFormat profile : Base Media\nCodec ID : isom\nFile size : 3.90 GiB\nDuration : 1h 59mn\nOverall bit rate mode : Variable\nOverall bit rate : 4 677 Kbps\nEncoded date : UTC 2015-07-26 03:26:28\nTagged date : UTC 2015-07-26 03:26:28\nWriting application : My MP4Box GUI 0.6.0.6 \n\nVideo\nID : 1\nFormat : AVC\nFormat/Info : Advanced Video Codec\nFormat profile : &lt;a class=&quot;__cf_email__&quot; href=&quot;/cdn-cgi/l/email-protection&quot; data-cfemail=&quot;b7ffded0dff7fb839987&quot;&gt;[email&amp;#160;protected]&lt;/a&gt;&lt;script data-cfhash='f9e31' type=&quot;text/javascript&quot;&gt;\n/* &lt;![CDATA[ */!function(){try{var t=&quot;currentScript&quot;in document?document.currentScript:function(){for(var t=document.getElementsByTagName(&quot;script&quot;),e=t.length;e--;)if(t[e].getAttribute(&quot;data-cfhash&quot;))return t[e]}();if(t&amp;&amp;t.previousSibling){var e,r,n,i,c=t.previousSibling,a=c.getAttribute(&quot;data-cfemail&quot;);if(a){for(e=&quot;&quot;,r=parseInt(a.substr(0,2),16),n=2;a.length-n;n+=2)i=parseInt(a.substr(n,2),16)^r,e+=String.fromCharCode(i);e=document.createTextNode(e),c.parentNode.replaceChild(e,c)}t.parentNode.removeChild(t);}}catch(u){}}()/* ]]&gt; */&lt;/script&gt;\nFormat settings, CABAC : Yes\nFormat settings, ReFrames : 4 frames\nCodec ID : avc1\nCodec ID/Info : Advanced Video Coding\nDuration : 1h 59mn\nBit rate : 4 102 Kbps\nMaximum bit rate : 37.6 Mbps\nWidth : 1 920 pixels\nHeight : 800 pixels\nDisplay aspect ratio : 2.40:1\nFrame rate mode : Constant\nFrame rate : 23.976 fps\nColor space : YUV\nChroma subsampling : 4:2:0\nBit depth : 8 bits\nScan type : Progressive\nBits/(Pixel*Frame) : 0.111\nStream size : 3.42 GiB (88%)\nTitle : Transcendence[Encode].h264\nWriting library : x264 core 142 r2479 dd79a61\nEncoded date : UTC 2015-07-26 03:26:28\nTagged date : UTC 2015-07-26 03:26:54\n\nAudio #1\nID : 2\nFormat : AC-3\nFormat/Info : Audio Coding 3\nMode extension : CM (complete main)\nFormat settings, Endianness : Big\nCodec ID : ac-3\nDuration : 1h 59mn\nBit rate mode : Constant\nBit rate : 448 Kbps\nChannel(s) : 6 channels\nChannel positions : Front: L C R, Side: L R, LFE\nSampling rate : 48.0 KHz\nBit depth : 16 bits\nCompression mode : Lossy\nStream size : 382 MiB (10%)\nTitle : Transcendence ac3.ac3\nEncoded date : UTC 2015-07-26 03:26:45\nTagged date : UTC 2015-07-26 03:26:54\n\nAudio #2\nID : 3\nFormat : AAC\nFormat/Info : Advanced Audio Codec\nFormat profile : LC\nCodec ID : 40\nDuration : 1h 59mn\nBit rate mode : Variable\nBit rate : 121 Kbps\nMaximum bit rate : 165 Kbps\nChannel(s) : 2 channels\nChannel positions : Front: L R\nSampling rate : 48.0 KHz\nCompression mode : Lossy\nStream size : 104 MiB (3%)\nTitle : Transcendence aac.m4a\nEncoded date : UTC 2015-07-26 03:26:52\nTagged date : UTC 2015-07-26 03:26:54","torrent":{"xt":"urn:btih:8612e610b3f046592a76fba5cdbfb6fc15f247f7","amp;dn":"Transcendence+%282014%29+%26amp%3B+BluRay+Xtras+1080p","amp;tr":["udp%3A%2F%2Ftracker.openbittorrent.com%3A80","udp%3A%2F%2Fopen.demonii.com%3A1337","udp%3A%2F%2Ftracker.coppersurfer.tk%3A6969","udp%3A%2F%2Fexodus.desync.com%3A6969"],"infoHash":"8612e610b3f046592a76fba5cdbfb6fc15f247f7","infoHashBuffer":{"type":"Buffer","data":[134,18,230,16,179,240,70,89,42,118,251,165,205,191,182,252,21,242,71,247]},"announce":[],"urlList":[]}}